<svg xmlns="http://www.w3.org/2000/svg" xmlns:xlink="http://www.w3.org/1999/xlink" width="100" zoomAndPan="magnify" viewBox="0 0 75 74.999997" height="100" preserveAspectRatio="xMidYMid meet" version="1.0"><defs><g/></defs><g fill="#38b6ff" fill-opacity="1"><g transform="translate(9.052735, 42.874983)"><g><path d="M 3.359375 -8.171875 L 11.296875 -4.96875 L 11.296875 -2.46875 L 0.921875 -7.28125 L 0.921875 -9.140625 L 11.296875 -13.9375 L 11.296875 -11.453125 Z M 3.359375 -8.171875 "/></g></g></g><g fill="#38b6ff" fill-opacity="1"><g transform="translate(22.264583, 42.874983)"><g><path d="M 5.609375 -6.359375 L 4.140625 -4.828125 L 4.140625 0 L 1.796875 0 L 1.796875 -19.5 L 4.140625 -19.5 L 4.140625 -7.703125 L 5.390625 -9.21875 L 9.671875 -13.734375 L 12.53125 -13.734375 L 7.1875 -8 L 13.15625 0 L 10.390625 0 Z M 5.609375 -6.359375 "/></g></g></g><g fill="#38b6ff" fill-opacity="1"><g transform="translate(35.438357, 42.874983)"><g><path d="M 4.203125 -13.734375 L 4.203125 1.59375 C 4.203125 4.226562 3.003906 5.546875 0.609375 5.546875 C 0.0859375 5.546875 -0.390625 5.46875 -0.828125 5.3125 L -0.828125 3.4375 C -0.554688 3.507812 -0.203125 3.546875 0.234375 3.546875 C 0.765625 3.546875 1.164062 3.398438 1.4375 3.109375 C 1.71875 2.828125 1.859375 2.335938 1.859375 1.640625 L 1.859375 -13.734375 Z M 1.609375 -17.375 C 1.609375 -17.75 1.722656 -18.066406 1.953125 -18.328125 C 2.191406 -18.597656 2.535156 -18.734375 2.984375 -18.734375 C 3.441406 -18.734375 3.785156 -18.601562 4.015625 -18.34375 C 4.253906 -18.082031 4.375 -17.757812 4.375 -17.375 C 4.375 -17 4.253906 -16.679688 4.015625 -16.421875 C 3.785156 -16.171875 3.441406 -16.046875 2.984375 -16.046875 C 2.523438 -16.046875 2.179688 -16.171875 1.953125 -16.421875 C 1.722656 -16.679688 1.609375 -17 1.609375 -17.375 Z M 1.609375 -17.375 "/></g></g></g><g fill="#38b6ff" fill-opacity="1"><g transform="translate(41.644499, 42.874983)"><g><path d="M 2.25 1.59375 L 0.234375 1.59375 L 7.953125 -18.484375 L 9.953125 -18.484375 Z M 2.25 1.59375 "/></g></g></g><g fill="#38b6ff" fill-opacity="1"><g transform="translate(52.356122, 42.874983)"><g><path d="M 10.09375 -8.25 L 1.703125 -11.546875 L 1.703125 -13.953125 L 12.546875 -9.15625 L 12.546875 -7.296875 L 1.703125 -2.484375 L 1.703125 -4.921875 Z M 10.09375 -8.25 "/></g></g></g></svg>